<?xml version="1.0" encoding="utf-8"?>
<!-- Generator: Adobe Illustrator 21.0.0, SVG Export Plug-In . SVG Version: 6.00 Build 0)  -->
<svg version="1.1" id="Layer_1" xmlns="http://www.w3.org/2000/svg" xmlns:xlink="http://www.w3.org/1999/xlink" x="0px" y="0px"
	 viewBox="0 0 3600 1884" style="enable-background:new 0 0 3600 1884;" xml:space="preserve">
<style type="text/css">
	.st0{fill:#EFF2F5;}
	.st1{fill:#F8B027;}
	.st2{fill:none;stroke:#FFFFFF;stroke-width:1.4002;stroke-miterlimit:10;}
	.st3{fill:#2D334A;}
	.st4{fill:#5B6072;}
	.st5{fill:#E6E6E9;}
	.st6{fill:#A3B1B7;}
	.st7{fill:#595E70;}
	.st8{fill:#C7D9E0;}
	.st9{fill:#FFFFFF;}
	.st10{fill:#ACC6D0;}
	.st11{fill:#88AEBC;}
	.st12{fill:#C5D7DE;}
	.st13{fill:#F7A509;}
	.st14{fill:#B8697F;}
	.st15{fill:#DB957F;}
	.st16{fill:none;stroke:#FB7F64;stroke-width:6.0571;stroke-miterlimit:10;}
	.st17{fill:none;stroke:#383E56;stroke-width:3.2988;stroke-miterlimit:10;}
	.st18{fill:#F9626A;}
	.st19{fill:#F8535B;}
	.st20{fill:#EBC2AB;}
	.st21{fill:#F8AC1D;}
</style>
<g>
	<path class="st0" d="M2620.2,593.3c-71.6,0-140.8,9.9-206.5,28.4c-168.8-217.3-432.6-357.2-729.1-357.2
		c-439.8,0-807.6,307.7-900.1,719.5c-12.1-2.5-24.6-3.9-37.5-3.9c-100.4,0-181.7,81.4-181.7,181.7c0,12.5,1.3,24.6,3.7,36.4
		c-169.5,43.6-301.4,180.7-337.5,353c-6.5,30.8-9.9,62.7-9.9,95.4c0,86.7,23.9,167.9,65.3,237.3h2872.9
		c90.1-91.3,157.2-205.3,191.9-332.7c17.3-63.7,26.6-130.6,26.6-199.8C3378.4,932.8,3038.9,593.3,2620.2,593.3z"/>
	<g>
		<path class="st1" d="M1958.2,433.9c0.4-56.9-46.8-103.1-104.3-100.9c-51.8,2-93.9,44-96.1,95.8c-1.3,31.4,11.8,59.8,33.3,79.1
			c13.1,11.8,20.3,28.8,20.2,46.5l0,2.7c-0.1,7.4,5.9,13.5,13.4,13.6l64.8,0.5c7.4,0.1,13.5-5.9,13.6-13.4l0-2.7
			c0.1-17.9,7.9-34.8,21.3-46.6C1944.9,490.2,1958,463.6,1958.2,433.9z"/>
		<g>
			<g>
				<g>
					<path class="st2" d="M1857.9,440.5c-13.5-0.1-32.1-10-32.8-25.6c-1-21.8,29.8-20.1,23.1,4.3c-7.8,28.6-41,11.3-41,11.3"/>
					<path class="st2" d="M1908.8,431.1c0,0-33.4,16.8-40.8-11.8c-6.3-24.5,24.5-25.7,23.2-3.9c-1,15.7-19.7,25.3-33.2,25.2"/>
				</g>
				<path class="st2" d="M1809.1,431.3c0,0,36.3,57.7,38.3,139.4"/>
				<path class="st2" d="M1906.8,432c0,0-37.1,57.2-40.2,138.9"/>
			</g>
		</g>
		<g>
			<path class="st3" d="M1861.4,638.3l-9.8-0.1c-8.9-0.1-16-7.3-15.9-16.2l0.3-39.5c0-6.9,5.7-12.5,12.6-12.4l16.8,0.1
				c6.9,0,12.5,5.7,12.4,12.6l-0.3,39.5C1877.5,631.2,1870.3,638.3,1861.4,638.3z"/>
			<g>
				<path class="st3" d="M1875.8,627.4l-38.4-0.3c-9.4-0.1-17-7.7-16.9-17.1l0.3-39.8c0-0.2,0.1-0.3,0.3-0.3l71.8,0.5
					c0.2,0,0.3,0.1,0.3,0.3l-0.3,39.8C1892.9,619.9,1885.2,627.5,1875.8,627.4z"/>
			</g>
			<path class="st4" d="M1894,617.8l-74.7-0.5c-2.9,0-5.3-2.4-5.3-5.4c0-2.9,2.4-5.3,5.4-5.3l74.7,0.5c2.9,0,5.3,2.4,5.3,5.4
				C1899.4,615.4,1897,617.8,1894,617.8z"/>
			<path class="st4" d="M1894.1,602.4l-74.7-0.5c-2.9,0-5.3-2.4-5.3-5.4c0-2.9,2.4-5.3,5.4-5.3l74.7,0.5c2.9,0,5.3,2.4,5.3,5.4
				C1899.5,600.1,1897.1,602.4,1894.1,602.4z"/>
			<path class="st4" d="M1894.3,587l-74.7-0.5c-2.9,0-5.3-2.4-5.3-5.4c0-2.9,2.4-5.3,5.4-5.3l74.7,0.5c2.9,0,5.3,2.4,5.3,5.4
				C1899.6,584.7,1897.2,587.1,1894.3,587z"/>
		</g>
	</g>
	<g>
		<g>
			<path class="st5" d="M2236.6,1681.4H560.4c-31,0-56.1-25.1-56.1-56.1c0-31,25.1-56.1,56.1-56.1h1676.2c31,0,56.1,25.1,56.1,56.1
				C2292.7,1656.3,2267.6,1681.4,2236.6,1681.4z"/>
		</g>
		<g>
			<path class="st5" d="M3039.6,1681.4H1363.4c-31,0-56.1-25.1-56.1-56.1c0-31,25.1-56.1,56.1-56.1h1676.2c31,0,56.1,25.1,56.1,56.1
				C3095.6,1656.3,3070.5,1681.4,3039.6,1681.4z"/>
		</g>
	</g>
	<g>
		<path class="st6" d="M2898,1482.7c70.5,0,130,42,148.5,99.4h-297C2768,1524.7,2827.5,1482.7,2898,1482.7z"/>
		<path class="st6" d="M3071.8,1513.5c48.7,0,89.7,29,102.5,68.6h-204.9C2982,1542.5,3023.1,1513.5,3071.8,1513.5z"/>
		<path class="st6" d="M2850.9,1582.1c-19.9-61.3-99-107.1-193.4-107.1s-173.5,45.8-193.4,107.1H2850.9z"/>
	</g>
	<g>
		<path class="st7" d="M2896.9,1000.5c16.1,0,29.7,10.8,33.9,25.6h-67.9C2867.2,1011.3,2880.8,1000.5,2896.9,1000.5z"/>
		<path class="st7" d="M2936.6,1008.4c11.1,0,20.5,7.5,23.4,17.7h-46.8C2916.1,1015.9,2925.5,1008.4,2936.6,1008.4z"/>
		<path class="st7" d="M2886.1,1026.1c-4.6-15.8-22.6-27.6-44.2-27.6c-21.6,0-39.7,11.8-44.2,27.6H2886.1z"/>
	</g>
	<g>
		<path class="st8" d="M2719,697.8c52,0,95.9,34.9,109.5,82.5h-219C2623.1,732.6,2667,697.8,2719,697.8z"/>
		<path class="st8" d="M2847.1,723.3c35.9,0,66.2,24.1,75.6,57h-151.1C2780.9,747.4,2811.2,723.3,2847.1,723.3z"/>
		<path class="st8" d="M2684.2,780.3c-14.7-50.9-73-88.9-142.7-88.9c-69.7,0-128,38-142.7,88.9H2684.2z"/>
	</g>
	<g>
		<path class="st9" d="M1284.5,486.7c56.7,0,104.5,38,119.4,90h-238.7C1180,524.8,1227.8,486.7,1284.5,486.7z"/>
		<path class="st9" d="M702.8,444.2c83.5,0,154,56,175.8,132.5H527C548.8,500.2,619.3,444.2,702.8,444.2z"/>
		<path class="st9" d="M1248.4,576.7c-27-93.3-133.8-163-261.5-163s-234.5,69.7-261.5,163H1248.4z"/>
	</g>
	<g>
		<path class="st8" d="M1019.9,541.4c48.2,0,88.9,32.3,101.5,76.5H918.5C931.1,573.7,971.7,541.4,1019.9,541.4z"/>
		<path class="st8" d="M1138.7,565.1c33.3,0,61.3,22.3,70,52.8h-140.1C1077.4,587.4,1105.4,565.1,1138.7,565.1z"/>
		<path class="st8" d="M987.7,617.9c-13.6-47.2-67.6-82.4-132.2-82.4S737,570.7,723.3,617.9H987.7z"/>
	</g>
	<g>
		<path class="st10" d="M1630,387.9c15.9,0,29.4,10.7,33.5,25.3h-67C1600.6,398.6,1614,387.9,1630,387.9z"/>
		<path class="st10" d="M1669.2,395.8c11,0,20.3,7.4,23.1,17.4h-46.3C1648.9,403.1,1658.2,395.8,1669.2,395.8z"/>
		<path class="st10" d="M1619.3,413.2c-4.5-15.6-22.3-27.2-43.7-27.2c-21.3,0-39.2,11.6-43.7,27.2H1619.3z"/>
	</g>
	<g>
		<path class="st6" d="M3048.4,1337.7c0,19.7,14.2,35.7,14.2,35.7s14.3-15.9,14.3-35.6s-14.2-35.7-14.2-35.7
			S3048.5,1318.1,3048.4,1337.7z"/>
		<path class="st6" d="M2979.9,1394.3c3.2,19.4,19.9,32.8,19.9,32.8s11.4-18.1,8.2-37.5c-3.2-19.4-19.9-32.8-19.9-32.8
			S2976.7,1374.9,2979.9,1394.3z"/>
		<path class="st6" d="M3141.8,1318.7c-18.1,7.7-27.2,27.1-27.2,27.1s20.3,6.8,38.4-0.9c18.1-7.7,27.2-27.1,27.2-27.1
			S3159.9,1310.9,3141.8,1318.7z"/>
		<path class="st6" d="M3099.9,1374.4c-18.2-7.5-38.4-0.5-38.4-0.5s9.3,19.3,27.5,26.8s38.4,0.5,38.4,0.5S3118.1,1382,3099.9,1374.4
			z"/>
		<path class="st6" d="M3038.6,1427.3c-18.2-7.5-38.4-0.5-38.4-0.5s9.3,19.3,27.5,26.8c18.2,7.5,38.4,0.5,38.4,0.5
			S3056.8,1434.8,3038.6,1427.3z"/>
		<g>
			<path class="st6" d="M2905.1,1555.6l3.6,1.7c0.2-0.4,20.4-42.5,57.6-89.9c21.8-27.8,45.1-52,69.2-71.8
				c30.1-24.8,61.6-42.8,93.5-53.7l-1.3-3.8c-32.5,11-64.4,29.4-94.8,54.5c-24.3,20-47.8,44.4-69.8,72.5
				C2925.6,1512.7,2905.3,1555.2,2905.1,1555.6z"/>
		</g>
	</g>
	<g>
		<path class="st6" d="M2897.5,1206.2c9.1,23.1,33.1,35.2,33.1,35.2s9.3-25.3,0.2-48.4c-9.1-23.1-33.1-35.2-33.1-35.2
			S2888.5,1183.1,2897.5,1206.2z"/>
		<path class="st6" d="M2843.5,1304.1c12.8,21.3,38.5,29.3,38.5,29.3s5-26.5-7.8-47.7c-12.8-21.3-38.5-29.3-38.5-29.3
			S2830.7,1282.9,2843.5,1304.1z"/>
		<path class="st6" d="M2998.1,1140.5c-17.6,17.5-19.3,44.4-19.3,44.4s26.9-1.4,44.5-18.9c17.6-17.5,19.3-44.4,19.3-44.4
			S3015.7,1123.1,2998.1,1140.5z"/>
		<path class="st6" d="M2974.8,1225.3c-24.8-0.4-45.2,17.3-45.2,17.3s19.8,18.2,44.6,18.6c24.8,0.4,45.2-17.3,45.2-17.3
			S2999.6,1225.7,2974.8,1225.3z"/>
		<path class="st6" d="M2927.5,1315.6c-24.8-0.4-45.2,17.3-45.2,17.3s19.8,18.2,44.6,18.6c24.8,0.4,45.2-17.3,45.2-17.3
			S2952.3,1315.9,2927.5,1315.6z"/>
		<g>
			<path class="st6" d="M2830.6,1527.8l5,0.3c0-0.6,4.2-59.3,25.8-132.1c12.7-42.7,28.7-81.8,47.8-116.2
				c23.8-43,52.3-78.7,84.7-106.3l-3.3-3.8c-32.9,28-61.8,64.2-85.8,107.7c-19.2,34.8-35.4,74.2-48.2,117.3
				C2834.8,1468,2830.6,1527.2,2830.6,1527.8z"/>
		</g>
	</g>
	<g>
		<path class="st11" d="M895.2,1478.1c-69.9,0-128.9,46.9-147.2,110.9h294.3C1024,1525,965.1,1478.1,895.2,1478.1z"/>
		<path class="st11" d="M723,1512.5c-48.2,0-88.9,32.4-101.5,76.6h203.1C811.9,1544.8,771.2,1512.5,723,1512.5z"/>
		<path class="st11" d="M941.8,1589c19.8-68.4,98.1-119.5,191.7-119.5c93.6,0,171.9,51.1,191.7,119.5H941.8z"/>
	</g>
	<g>
		<g>
			<g>
				<polygon class="st4" points="1525.2,1583.6 1358.4,1583.6 1498,960.8 1664.8,960.8 				"/>
			</g>
			<rect x="1225.7" y="1552.5" class="st4" width="644" height="43.3"/>
			<polygon class="st3" points="1107.2,729.6 1107.2,784.4 1107.2,1362.4 2190.9,1362.4 2190.9,1205 2190.9,729.6 			"/>
			<polygon class="st12" points="1126.9,745.6 1126.9,789.9 1126.9,1257.4 2171.1,1257.4 2171.1,1130 2171.1,745.6 			"/>
		</g>
		<rect x="1772.6" y="879.2" class="st11" width="235.3" height="20.8"/>
		<rect x="1772.6" y="936.8" class="st9" width="339.1" height="10.1"/>
		<rect x="1772.6" y="982.5" class="st9" width="339.1" height="10.1"/>
		<rect x="1772.6" y="1028.1" class="st9" width="339.1" height="10.1"/>
		<rect x="1772.6" y="1080.8" class="st9" width="339.1" height="10.1"/>
		<rect x="1772.6" y="1126.4" class="st9" width="339.1" height="10.1"/>
		<rect x="1772.6" y="1179.2" class="st9" width="134.8" height="10.1"/>
	</g>
	<path class="st11" d="M885.8,1415.1c-15.5,8.2-26.8,19.4-31.8,24.8c-0.2-0.5-0.4-0.9-0.7-1.4c-5.6-12-12.3-25.4-20.1-39.7
		c6.4-2.6,21.3-9.5,34.9-21.9c17.8-16.3,26.5-35.8,26.5-35.8s-20.3,6.8-38.1,23.1c-13.1,12-21.3,25.7-24.7,32.1
		c-6.5-11.8-13.7-24.2-21.7-36.8c5.6-4.3,18.1-14.7,27.9-29.9c13.1-20.3,16.4-41.4,16.4-41.4s-17.8,11.8-30.9,32.1
		c-9.1,14.2-13.5,28.7-15.3,36.2c-8-12.5-16.8-25.3-26.3-38c4.9-5.1,15.7-17.3,23.1-33.9c9.8-22.1,9.9-43.4,9.9-43.4
		s-15.8,14.4-25.7,36.4c-6.8,15.2-8.9,30.1-9.6,37.8c-6.5-8.5-13.3-17-20.5-25.4c2.6-6.6,7.9-21.9,8.5-40c0.8-24.1-7.2-44-7.2-44
		s-9.2,19.3-10,43.4c-0.5,14.7,2.3,27.7,4.5,35.7c-5.1-5.8-10.4-11.5-15.8-17.2c-3.6-7.5-10.2-19.1-20.3-29.9
		c-16.5-17.6-36.2-26-36.2-26s7.1,20.2,23.7,37.7c10,10.6,21.1,17.8,28.3,21.9c5.6,5.8,11.1,11.7,16.3,17.7
		c-7.7-1.5-22.5-3.5-38.9-1.3c-23.9,3.3-42.1,14.5-42.1,14.5s20.6,5.9,44.5,2.6c18.2-2.5,33-9.6,39.1-12.8
		c7.2,8.4,14.1,16.9,20.6,25.4c-7.2,0.6-23.1,2.7-39.2,10.2c-21.9,10.1-36.2,26-36.2,26s21.4-0.3,43.3-10.4
		c16.7-7.6,28.9-18.7,33.8-23.6c9.8,13,18.8,26.1,27.1,39c-7.4,0-23.2,0.8-39.8,6.7c-22.7,8.1-38.3,22.7-38.3,22.7
		s21.3,1.6,44.1-6.5c17.1-6.1,30.2-15.9,35.6-20.4c8.1,12.7,15.4,25.2,21.9,37.1c-7.4-0.3-23.1,0-39.8,5.2
		c-23,7.3-39.1,21.4-39.1,21.4s21.3,2.3,44.3-4.9c17.1-5.4,30.4-14.6,36.1-18.9c7.7,14.1,14.3,27.3,19.8,39.2
		c0.3,0.6,0.6,1.2,0.8,1.8c-4.8,0.2-23.2,1.7-42.1,10.4c-21.9,10.1-36.2,26-36.2,26s21.4-0.3,43.3-10.4c18.8-8.6,32-21.6,35.3-25.1
		c22.6,48.8,32.9,84.7,33,85.1l5.7-1.6c-0.1-0.4-10.2-35.9-32.5-84.3c7.2-1,22.9-4.1,38.5-12.4c21.3-11.3,34.6-28.1,34.6-28.1
		S907.2,1403.8,885.8,1415.1z"/>
	<path class="st11" d="M1103.4,1394.7c-25.7,7-45.9,19.7-55.1,26.1c-0.2-0.8-0.3-1.5-0.5-2.3c-4.3-19.6-9.8-41.6-16.5-65.2
		c10.3-1.7,34.6-7,58.7-20.8c31.7-18.1,50.9-44.1,50.9-44.1s-32.1,3.4-63.8,21.5c-23.3,13.3-39.9,30.9-47,39.3
		c-5.7-19.6-12.2-40.2-19.8-61.4c9.7-4.4,31.6-15.7,51.1-34.9c26-25.6,38-55.7,38-55.7s-30.2,11.5-56.2,37.1
		c-18.2,17.9-29.5,37.9-34.6,48.4c-7.7-21.2-16.4-42.9-26.2-64.8c8.9-5.8,28.8-20.3,45.2-42.3c21.8-29.3,29-60.8,29-60.8
		s-28.1,16-49.9,45.3c-15,20.2-23.1,41.4-26.7,52.7c-6.7-14.7-14-29.5-21.8-44.2c6.1-8.8,19-29.7,25.8-56.2
		c9.1-35.3,3.9-67.2,3.9-67.2s-20,25.4-29.1,60.8c-5.5,21.5-5.8,41.7-5.1,54.2c-5.6-10.2-11.5-20.4-17.6-30.5
		c-2.8-12.2-8.7-31.6-20-50.7c-18.6-31.4-44.8-50.3-44.8-50.3s3.9,32.1,22.4,63.5c11.2,18.9,25.2,33.3,34.5,41.7
		c6.4,10.4,12.4,21,18.2,31.6c-10.9-4.8-32-12.7-57-14.8c-36.4-3-66.9,7.4-66.9,7.4s28.4,15.4,64.8,18.5c27.6,2.3,51.9-3.2,62-6
		c7.9,14.7,15.2,29.6,22,44.4c-10.9-1.5-35-3.6-61.3,2c-35.7,7.6-61.9,26.5-61.9,26.5s31.6,6.6,67.4-1c27.1-5.8,48.8-18,57.6-23.6
		c10.2,22.5,19.2,44.8,27.1,66.5c-10.8-2.5-34.4-6.6-60.9-3.3c-36.2,4.4-64,20.9-64,20.9s30.9,9.3,67.2,4.9
		c27.3-3.3,49.8-13.5,59.2-18.3c7.7,21.4,14.3,42.3,20,62c-10.9-2.9-34.1-7.7-60.4-5.5c-36.4,3.1-64.8,18.6-64.8,18.6
		s30.6,10.5,67,7.4c27-2.3,49.7-11.4,59.5-16c6.6,23.3,12,45,16.3,64.4c0.2,1,0.4,1.9,0.6,2.9c-7.2-1.2-34.9-5.2-65.5,1.3
		c-35.7,7.6-61.9,26.5-61.9,26.5s31.6,6.6,67.4-1c30.7-6.5,54.3-21.3,60.4-25.4c17.2,79.4,20.5,135.8,20.5,136.4l8.9-0.5
		c0-0.6-3.2-56.4-20.1-135.1c11,0.9,35.1,1.6,60.9-5.5c35.2-9.6,60.3-30,60.3-30S1138.6,1385.1,1103.4,1394.7z"/>
	<g>
		<path class="st9" d="M2714.2,754.8c26.8,0,49.4,18,56.4,42.5h-112.8C2664.8,772.8,2687.4,754.8,2714.2,754.8z"/>
		<path class="st9" d="M2780.2,768c18.5,0,34.1,12.4,38.9,29.3h-77.8C2746.1,780.4,2761.7,768,2780.2,768z"/>
		<path class="st9" d="M2696.3,797.3c-7.6-26.2-37.6-45.8-73.5-45.8c-35.9,0-65.9,19.6-73.5,45.8H2696.3z"/>
	</g>
	<g>
		
			<ellipse transform="matrix(0.1035 -0.9946 0.9946 0.1035 1421.0896 3057.1465)" class="st13" cx="2406.5" cy="740.2" rx="184.2" ry="184.2"/>
		<path class="st13" d="M2473.3,889.1c0,0-1.5,38.2,50,54.2c0,0-36.3-19.7-32.6-54.7L2473.3,889.1z"/>
	</g>
	<g>
		<rect x="2316.7" y="690.5" class="st3" width="201.5" height="8.5"/>
		<rect x="2302.6" y="718.8" class="st3" width="215.6" height="8.5"/>
		<rect x="2302.6" y="747" class="st3" width="215.6" height="8.5"/>
		<rect x="2302.6" y="775.2" class="st3" width="199.7" height="8.5"/>
	</g>
	<g>
		<path class="st14" d="M1410.3,825.6c92.1-71.4,136.8-28.3,137.8-27.6c11.4,7.9,10.5,35.2-0.3,48.5l-310.9,271.2
			c-3.7,5-11.9-0.9-17-4.4c-1.7-1.2-2.9-2.7-3.8-4.4c-8.5-11.6-14.7-37.5-8.3-50.8C1241.2,988.6,1362.2,862.9,1410.3,825.6z"/>
		<g>
			<path class="st15" d="M1327.4,818.2c-10.1,36.8-23.3,97.2-37.7,154.4l-86-7.4l89.1-162.5L1327.4,818.2z"/>
			<path class="st14" d="M1242,1112.3c-25,33.2-80.6-2-81.7-2.4c-11.9-4.5-20.1-27.1-13.6-40.8l57-103.8l86,7.4
				C1274.4,1034,1257.7,1091.6,1242,1112.3z"/>
		</g>
		<path class="st14" d="M1585,799.8c-104.2-48.2-138.5,3.6-139.3,4.5c-9.4,10.2-2.7,36.4,10.5,46.8l358,191.6
			c4.6,4,11.4-3.6,15.5-8.1c1.4-1.5,2.3-3.3,2.7-5.1c5.8-13.1,6.3-39.5-2.7-51C1782.9,918.9,1639.3,824.9,1585,799.8z"/>
		<path class="st16" d="M1460.8,770.9"/>
		<path class="st14" d="M1659.8,1257.3h-281.6c-5.5-38.2-4.5-97.6-3.1-143.9c0.8-90.3-10.1-207.3,67.6-282
			c5.7-5.5,4.3-18.3,10.1-22.7c34.6-26.2,54.5-32.4,100.7-2.4c14.2,9.2,32.5,41.1,46.3,74.7c6.7,11.5,13.5,22.9,19.5,33.9
			c12.8,23.4,20.9,32.3,24.9,58.9c6.3,41-17.5,67-22.8,118.6C1618.8,1119.1,1641.1,1190.1,1659.8,1257.3z"/>
		<g>
			<path class="st15" d="M1784.4,715.4c-1.2,38.1-6.3,99.8-9.4,158.6l84.4,18.3l-37.4-181.5L1784.4,715.4z"/>
			<path class="st14" d="M1779.5,1021.5c14.2,39,77.7,21.8,78.8,21.7c12.7-0.8,27.1-20,24.9-35l-23.9-116L1775,874
				C1771.7,937.2,1770.7,997.2,1779.5,1021.5z"/>
		</g>
		<path class="st3" d="M1554.3,718.9c0,0-23.6,41.7-100.2,39c-76.6-2.8-90.7-94.9-76.3-121.3c14.4-26.4-12-93.9,101.1-85.3
			C1496.2,552.6,1639.1,584.3,1554.3,718.9z"/>
		<path class="st3" d="M1543.4,561.3c-21-2.7-47.4,4-59.4,22.8s-4.7,27.7,13.1,39.1c17.8,11.4,66.9,18.1,82.9,2.7
			C1603.8,602.7,1576.5,565.6,1543.4,561.3z"/>
		<path class="st15" d="M1465.1,699.9l61.3-10c1.1,8.9,19.4,96.2,18.1,128.4c-1.5,10-23.1,9.1-37.3,8.8
			c-22.2-0.4-33.4-20.2-33.4-20.2C1474.5,787.6,1468.8,731,1465.1,699.9z"/>
		<path class="st15" d="M1462.2,697.5c19.6,55.2,73.9,86.3,107.6,74.3c33.7-12,44.7-67.9,25.1-123.1s-67.5-68.1-101.2-56.1
			C1460,604.5,1442.6,642.3,1462.2,697.5z"/>
		<path class="st3" d="M1403.5,633.4c1.2-8.9,5.3-17.2,10.4-24.5c16.2-23.4,44.3-37.7,72.6-38.6c13.2-0.4,23-0.1,26.9,13.6
			c3.7,13.4,0.3,28.9-11.1,37.6c-9.5,7.2-22.6,9.3-30.2,18.4c-6.1,7.4-7.2,17.7-7,27.3c0.2,9.6,1.3,19.4-1.4,28.6
			c-2.8,9.2-10.9,17.7-20.5,17.1c-6.8-0.4-12.5-5.2-16.9-10.5c-9.2-11-14.7-24.5-18.8-38.2C1404.4,654.2,1402,643.7,1403.5,633.4z"
			/>
		<g>
			
				<ellipse transform="matrix(0.9989 -4.713161e-02 4.713161e-02 0.9989 -30.0466 72.0678)" class="st17" cx="1513.2" cy="673.2" rx="34.3" ry="34.3"/>
			<path class="st17" d="M1557.6,644.8c-3.2-0.2-6.5,0.2-9.8,1.3c-3.2,1.1-6.1,2.8-8.5,5"/>
			
				<ellipse transform="matrix(0.9989 -4.713161e-02 4.713161e-02 0.9989 -28.645 75.7508)" class="st17" cx="1592" cy="645.3" rx="34.3" ry="34.3"/>
			<line class="st17" x1="1436.4" y1="706.9" x2="1481.8" y2="686.4"/>
		</g>
		<path class="st15" d="M1434,720c4,14,23,27.9,33.1,25c10.1-2.9,9.4-14.9,5.5-28.9c-4-14-15.9-24.7-26-21.9
			C1436.4,697.2,1430,706.1,1434,720z"/>
		<path class="st3" d="M1425.5,567.5c0,0,8.9-40.9-38.2-59.2c-47.1-18.3-115.2,34.9-97.9,90.8c17.2,55.9,98.2,86.4,126.2,52.8
			C1443.7,618.4,1425.5,567.5,1425.5,567.5z"/>
		<path class="st15" d="M1783,718.6c6.2,7.8,9,21.5,24.3,20.7c12.2-0.6,20.6-4,26-9.7c5.6-5.9,8.6-16.7,2.9-25.9
			c-1.1-1.8,1.8-6.2,4.4-9c5.9-6.1,11.6-10.4,15.1-18.9c5.8-14.3-0.9-21.2-3.4-22.2c-2.5-1-4.5,7.2-6.1,10.8
			c-1.6,3.6-11.1,9.6-14.8,13.8c-2.2,2.5-8.9,6.4-14,9.3c-4.9,2.7-9.5,5.8-13.9,9.2c-6.4,5-13.2,7.9-17.4,13.6
			C1784.7,712.1,1783.9,716.6,1783,718.6z"/>
		<path class="st15" d="M1790.4,721.6l15.1,40.4c5.7,2.7,9.5,4.6,50.2-9.9l14.9-5.5l1.4-18.7c0.2-2.9,0.1-5.8-0.3-8.7l-0.5-3.8
			c-1.1-7.7-4.5-15-9.9-20.7l-3.3-3.5c-1.8-2.2-31.9,5.6-31.4,3.5C1826.7,694.6,1790.6,720.4,1790.4,721.6z"/>
		<path class="st15" d="M1884.5,680.5l-42.5,17.1c-3.2,1.3-4.7,4.9-3.4,8v0c1.3,3.2,4.9,4.7,8,3.4l42.5-17.1c3.2-1.3,4.7-4.9,3.4-8
			v0C1891.2,680.8,1887.6,679.3,1884.5,680.5z"/>
		<path class="st15" d="M1886.3,656.4l-3.6,29.8c-0.4,3.3,2,6.3,5.3,6.8l0,0c3.3,0.4,6.3-2,6.8-5.3l3.6-29.8c0.4-3.3-2-6.3-5.3-6.8
			l0,0C1889.8,650.7,1886.8,653.1,1886.3,656.4z"/>
		<path class="st15" d="M1875.9,657.9l12.6,4.4l0,0c4,1.2,8.1-0.6,8.9-3.9l0,0c0.8-3.2-1.8-6.5-5.7-7.4l-16.2-3.9
			c-2.5-0.6-4.9,0.6-5.3,2.7l0,0C1869.6,653.1,1872,656.5,1875.9,657.9z"/>
		<path class="st15" d="M1941.8,692.7l-13,3.2l0,0c-4,1.2-6.3,5.2-5,8.7l0,0c1.2,3.3,5.3,4.9,9,3.5l15.7-5.8
			c2.4-0.9,3.7-3.4,2.8-5.5l0,0C1949.8,693.4,1945.8,691.7,1941.8,692.7z"/>
		<path class="st15" d="M1904.6,699.8l-39.6,4.7c-3.6,0.4-6.1,3.7-5.7,7.3v0c0.4,3.6,3.7,6.1,7.3,5.7l39.6-4.7
			c3.6-0.4,6.1-3.7,5.7-7.3v0C1911.4,701.9,1908.2,699.4,1904.6,699.8z"/>
		<path class="st15" d="M1927.3,696.1l-23.8,4c-3.5,0.6-5.8,3.9-5.2,7.3v0c0.6,3.5,3.9,5.8,7.3,5.2l23.8-4c3.5-0.6,5.8-3.9,5.2-7.3
			l0,0C1934,697.9,1930.8,695.5,1927.3,696.1z"/>
		<path class="st15" d="M1932.6,717.9l-12.2,1.2l0,0c-3.8,0.6-6.3,3.8-5.5,7l0,0c0.8,3.1,4.3,5,7.9,4.2l15-3.2
			c2.3-0.5,3.7-2.5,3.1-4.5l0,0C1939.8,719.6,1936.3,717.6,1932.6,717.9z"/>
		<path class="st15" d="M1901.4,720.3l-32.8-0.2c-3.9,0-7,2.6-7,5.8l0,0c0,3.2,3.1,5.9,7,5.9l32.8,0.2c3.9,0,7-2.6,7-5.8l0,0
			C1908.4,723,1905.2,720.3,1901.4,720.3z"/>
		<path class="st15" d="M1920.1,719.3l-16.3,1.2c-3.8,0.3-6.7,3.1-6.4,6.2l0,0c0.3,3.1,3.6,5.5,7.5,5.2l16.3-1.2
			c3.8-0.3,6.7-3.1,6.4-6.2l0,0C1927.3,721.3,1924,719,1920.1,719.3z"/>
		<path class="st15" d="M1909.6,740.1l-11.7-0.2l0,0c-3.7,0.1-6.5,2.9-6.2,6l0,0c0.3,3,3.3,5.1,6.8,4.8l14.6-1.4
			c2.3-0.2,3.9-2,3.6-3.9l0,0C1916.2,742.5,1913.3,740.2,1909.6,740.1z"/>
		<path class="st15" d="M1881.1,738.1l-32.2-5c-3.1-0.5-6,1.6-6.5,4.8l0,0c-0.5,3.1,1.6,6,4.8,6.5l32.2,5c3.1,0.5,6-1.6,6.5-4.8l0,0
			C1886.4,741.5,1884.2,738.6,1881.1,738.1z"/>
		<path class="st15" d="M1898.7,739.6l-17.2-1.3c-3.1-0.2-5.8,2.1-6.1,5.2v0c-0.2,3.1,2.1,5.8,5.2,6.1l17.2,1.3
			c3.1,0.2,5.8-2.1,6.1-5.2v0C1904.1,742.6,1901.8,739.9,1898.7,739.6z"/>
		<path class="st15" d="M1328.8,817.1c-9,4.3-17.5,15.3-30.9,7.9c-10.7-5.9-16.7-12.6-19.1-20.1c-2.4-7.8-0.4-18.8,8.8-24.5
			c1.8-1.1,1.1-6.4,0-10c-2.6-8.1-5.8-14.4-5.2-23.6c1-15.4,10.1-18.7,12.8-18.5c2.7,0.2,0.9,8.4,0.7,12.4
			c-0.2,3.9,5.8,13.5,7.3,18.9c0.9,3.2,5.1,9.7,8.5,14.5c3.2,4.6,6,9.4,8.4,14.4c3.6,7.3,8.4,12.9,9.6,19.9
			C1330.1,810.5,1328.9,815,1328.8,817.1z"/>
		<path class="st15" d="M1323.2,815.2l-29.2,31.8c-6.3,0.3-10.6,0.7-42.7-28.1l-11.8-10.7l5.7-17.9c0.9-2.8,2.1-5.4,3.5-8l1.9-3.3
			c3.9-6.8,9.8-12.2,16.9-15.5l4.4-2c2.5-1.3,27.5,17.2,27.8,15C1299.7,776.5,1323.4,813.9,1323.2,815.2z"/>
		<path class="st15" d="M1253.1,741.7l33.2,31.5c2.5,2.3,2.6,6.2,0.2,8.7l0,0c-2.3,2.5-6.2,2.6-8.7,0.2l-33.2-31.5
			c-2.5-2.3-2.6-6.2-0.2-8.7v0C1246.7,739.5,1250.6,739.4,1253.1,741.7z"/>
		<path class="st15" d="M1232.5,719.1l20,22.4c2.2,2.5,2,6.3-0.5,8.6h0c-2.5,2.2-6.3,2-8.6-0.5l-20-22.4c-2.2-2.5-2-6.3,0.5-8.6l0,0
			C1226.4,716.4,1230.2,716.6,1232.5,719.1z"/>
		<path class="st15" d="M1222.3,706.3l8.4,10.4l0,0c2.5,3.4,2.1,7.8-0.7,9.7l0,0c-2.7,1.8-6.7,0.5-8.9-2.9l-9.1-14
			c-1.4-2.2-1-4.9,0.8-5.9l0,0C1215.7,701.9,1219.7,703,1222.3,706.3z"/>
		<path class="st15" d="M1204.3,721.1l9.2,9.7l0,0c2.7,3.2,2.5,7.8-0.5,10l0,0c-2.8,2.1-7.1,1.3-9.5-1.9l-10-13.4
			c-1.6-2.1-1.3-4.9,0.7-6.1l0,0C1197.1,717.4,1201.4,718.1,1204.3,721.1z"/>
		<path class="st15" d="M1231.7,747.2l30.7,25.4c2.8,2.3,3.2,6.4,0.9,9.2l0,0c-2.3,2.8-6.4,3.2-9.2,0.9l-30.7-25.4
			c-2.8-2.3-3.2-6.4-0.9-9.2l0,0C1224.8,745.3,1228.9,744.9,1231.7,747.2z"/>
		<path class="st15" d="M1214.6,731.8l17.8,16.2c2.6,2.4,2.8,6.4,0.4,9l0,0c-2.4,2.6-6.4,2.8-9,0.4l-17.8-16.2
			c-2.6-2.4-2.8-6.4-0.4-9l0,0C1207.9,729.6,1212,729.4,1214.6,731.8z"/>
		<path class="st15" d="M1198.3,747.3l9.7,7.6l0,0c2.9,2.5,3.3,6.6,0.8,8.9l0,0c-2.3,2.2-6.3,1.8-8.9-0.7l-10.9-10.8
			c-1.7-1.7-1.8-4.2-0.2-5.5l0,0C1191.3,744.8,1195.3,745,1198.3,747.3z"/>
		<path class="st15" d="M1223.2,766.2l27.7,17.5c3.3,2.1,4.5,5.9,2.7,8.6l0,0c-1.7,2.7-5.8,3.2-9.1,1.2l-27.7-17.5
			c-3.3-2.1-4.5-5.9-2.7-8.6h0C1215.9,764.6,1220,764.1,1223.2,766.2z"/>
		<path class="st15" d="M1208.1,755.1l13.1,9.8c3.1,2.3,4,6.2,2,8.7l0,0c-1.9,2.5-6,2.6-9.1,0.3l-13.1-9.8c-3.1-2.3-4-6.2-2-8.7l0,0
			C1200.9,753,1205,752.8,1208.1,755.1z"/>
		<path class="st15" d="M1205.6,778.4l10,6.2l0,0c3,2.1,3.9,6,2,8.4l0,0c-1.8,2.4-5.6,2.5-8.4,0.3l-11.5-9c-1.8-1.4-2.2-3.8-0.9-5.2
			l0,0C1198.8,776.8,1202.5,776.5,1205.6,778.4z"/>
		<path class="st15" d="M1230.7,792.1l29.8,13.2c2.9,1.3,4.2,4.6,2.9,7.5l0,0c-1.3,2.9-4.6,4.2-7.5,2.9l-29.8-13.2
			c-2.9-1.3-4.2-4.6-2.9-7.5l0,0C1224.4,792.1,1227.8,790.8,1230.7,792.1z"/>
		<path class="st15" d="M1215.1,783.9l15.2,8.2c2.7,1.5,3.8,4.9,2.3,7.7l0,0c-1.5,2.7-4.9,3.8-7.7,2.3l-15.2-8.2
			c-2.7-1.5-3.8-4.9-2.3-7.7l0,0C1208.9,783.4,1212.3,782.4,1215.1,783.9z"/>
	</g>
	<g>
		<g>
			<path class="st18" d="M2648.9,1191.1c25.1-49.8-19.9-65.7-21-66.6c-12.3-11.3-43.8-3.1-56.4,12.9l-261.7,371.8
				c-4.8,5.6,2.5,34.4,7.9,39.4c1.8,1.7,3.9,2.7,6.2,3.2c15.8,6.9,40.9-17.8,53.6-30C2439.6,1461.9,2616.3,1255.8,2648.9,1191.1z"/>
			<g>
				<path class="st19" d="M2503.9,1558.8c2.6-16.1,5.4-32.9,7.7-47.9c1.7-10.7,3.7-22.5,5.1-31.2c1-6.1,2.6-18,3.3-22
					c11.8-66,23.1-160.5,16.9-222.4c-5.7-56.3,14.3-84.8,50.4-117.6c3.5-3.2,10.9-6.7,14.3-9c64-42,152.3-12.9,165.4,66.7
					c4.4,26.6,5.7,51.5,6.9,82.2c2.1,52.5,4.7,111.7,4.7,166.2c0,8.4-0.2,18.9-0.4,28.4c-0.4,22-1.5,45.2-2.6,67.7
					c-0.4,9.1-1.1,18.7-1.6,28.2c-0.5,8.5-1,17-1.6,25.6h-271.1C2502.3,1568.7,2503.1,1563.7,2503.9,1558.8z"/>
			</g>
			<path class="st18" d="M2693.9,1232.8c-19.7-50.6,36.3-69,37.4-69.8c12.4-9.2,34.3,1.5,39.6,28.8l93.8,366.1
				c4.1,5.9-5.1,12.4-10.6,16.5c-1.8,1.3-3.9,2.1-6.1,2.3c-15.4,4.5-3.1-5.2-15.2-17.4C2769.6,1495.9,2719.5,1298.6,2693.9,1232.8z"
				/>
			<path class="st9" d="M2642.3,1090.6c0,0-52.5,13.2-43,96.6s16.6,113.1,16.6,113.1s93.1-151.1,88.8-185.3
				C2700.4,1080.8,2642.3,1090.6,2642.3,1090.6z"/>
			<g>
				<path class="st3" d="M2539.5,1068.7c0,0-10.9-29.6,2.7-55.7c13.6-26.1,22.7,3.9,22.7,3.9L2539.5,1068.7z"/>
				<path class="st3" d="M2723.5,1005.3c-1.5,2.8-22.6,56.1-31.8,56.9c-12.5,1.1-8.1-40.3-8.1-40.3L2723.5,1005.3z"/>
				<path class="st3" d="M2558.5,934.7c0,0-12.5-27-2-46.1c10-18.1,27.7-37.2,97.8-22.7c10,2.1,17.1,11,16.9,21.2l-0.6,29
					L2558.5,934.7z"/>
				<path class="st20" d="M2690.7,989c-6.9,41.7-15.7,75.8-42.4,93.1c-9.4,6.1-21.1,11.2-34.8,12.9c-8.6,1-17.9,0.7-28-1.5
					c-26.3-5.9-39.1-20-44.1-39.9c-5.8-22.9-1.4-53.5,4.3-88.5c10.8-65.5,48.8-93.5,88.8-86.9C2674.5,884.8,2701.5,923.5,2690.7,989
					z"/>
				<path class="st20" d="M2695.2,993l-69.6-4.3c-0.6,9.5-4.6,100.2,0.1,134.2c2.9,10.4,20.4,14.6,39,9.4
					c16.7-4.7,28.6-15.4,28.7-25.1l0.1,0C2690.7,1086.8,2693.2,1026.3,2695.2,993z"/>
				<path class="st3" d="M2721.6,1009.8c0,0-17.6,4.7-31.7-10.9c-18.6-20.6-35.2-64.6-39.2-84.6c-7.2-35.2,3.2-44.2,3.2-44.2
					s66.7,6.9,80.5,29.6C2754.9,933.5,2721.6,1009.8,2721.6,1009.8z"/>
				<path class="st3" d="M2672.4,953.4l-15.7,95.6c-1.7,10.1-9.2,18.2-19.1,20.6l-11.4,2.8c-7,1.7-13.9-3.4-14.2-10.6l-0.8-19.7
					c-0.2-4.4-3.3-8.2-7.6-9.2l-42.7-10.4c-4.6-1.1-9.3,1.1-11.3,5.3l-8.4,17.6c-8.3,17.4,0.7,38.1,19.1,43.9l25.5,8
					c5.5,1.7,11.2,2.1,16.8,1c0.4-0.1,0.8-0.1,1.3-0.2l0.7-0.2c0,0,0,0,0,0l8.8-2.2v0l28.8-7c17.6-4.3,30.9-18.7,33.8-36.5
					l15.7-95.6L2672.4,953.4z"/>
				<path class="st20" d="M2719.7,995.5c-2.3,14.2-19.3,30.1-29.6,28.5c-10.3-1.6-11-13.6-8.7-27.8c2.3-14.2,12.7-26.2,23-24.5
					C2714.7,973.3,2722,981.3,2719.7,995.5z"/>
				<path class="st3" d="M2657.2,900.1l-42.3-6.6c-14.2-2.2-28.7,0.8-40.8,8.4l-16.5,10.3l25.9-36.4l36-7.4l42.6,10L2657.2,900.1z"
					/>
			</g>
			<g>
				<polygon class="st20" points="2631.4,1266.1 2595.6,1291.3 2549.8,1210 2585.5,1187.2 				"/>
				<path class="st20" d="M2608.9,1163.3c3.1,19.5-3,57.5-3.9,58.4l-43.7,6.2c-5.2-3.9-13.6-14.7-16.5-23.4
					c-2.9-8.9-3.6-18.5-2-27.8l2.9-17.3l17.1-9.4l18.6-5.3l26.7-0.3L2608.9,1163.3z"/>
				<path class="st20" d="M2590.3,1110l3.7,38.1c0.4,4.2,3.9,7.4,7.9,7.2l0,0c3.9-0.2,6.8-3.8,6.4-8l-3.7-38.1
					c-0.4-4.2-3.9-7.4-7.9-7.2l0,0C2592.7,1102.2,2589.9,1105.8,2590.3,1110z"/>
				<path class="st20" d="M2539.2,1132.9l28.3,27c2.7,2.6,7,2.5,9.6-0.2l0,0c2.6-2.7,2.5-7-0.2-9.6l-28.3-27c-2.7-2.6-7-2.5-9.6,0.2
					l0,0C2536.4,1126.1,2536.5,1130.4,2539.2,1132.9z"/>
				<path class="st20" d="M2530.3,1149.2l26.1,23.2c2.6,2.3,6.5,2,8.7-0.5l0,0c2.3-2.6,2-6.5-0.5-8.7l-26.1-23.2
					c-2.6-2.3-6.5-2-8.7,0.5l0,0C2527.6,1143,2527.8,1147,2530.3,1149.2z"/>
				<path class="st20" d="M2526.2,1144.4l-2.8,10.9c-1,3.7,0.8,7.4,3.9,8.2l0,0c2.9,0.7,5.9-1.2,7.1-4.5l3.9-10.6
					c1.4-3.9-0.3-8.1-3.6-9l-1.1-0.3C2530.5,1138.3,2527.2,1140.6,2526.2,1144.4z"/>
				<path class="st20" d="M2584.9,1082.9l5.6,27.5c0.8,4.1,4.6,6.9,8.5,6.2l0,0c3.8-0.7,6.3-4.6,5.4-8.7l-5.6-27.5
					c-0.8-4.1-4.6-6.9-8.5-6.2l0,0C2586.5,1074.9,2584,1078.8,2584.9,1082.9z"/>
				<path class="st20" d="M2542.9,1126.8l12.9-6.4l0,0c3.9-2.2,5.3-7,3.1-10.4l0,0c-2.1-3.2-6.7-4-10.3-1.7l-15,9.7
					c-2.3,1.5-3,4.5-1.6,6.5l0,0C2534.3,1127.9,2538.9,1128.8,2542.9,1126.8z"/>
				<path class="st20" d="M2538.1,1164.2l-5.6-8.5l0,0c-1.9-2.6-5.4-3.2-7.6-1.3l0,0c-2.1,1.8-2.2,5.1-0.3,7.4l8.2,9.8
					c1.3,1.5,3.4,1.8,4.7,0.5l0,0C2539.6,1170.2,2539.9,1166.8,2538.1,1164.2z"/>
				<path class="st20" d="M2566.5,1124l17.2,35.7c1.7,3.5,5.9,5,9.4,3.3l0,0c3.5-1.7,5-5.9,3.3-9.4l-17.2-35.7
					c-1.7-3.5-5.9-5-9.4-3.3l0,0C2566.3,1116.3,2564.8,1120.5,2566.5,1124z"/>
				<path class="st20" d="M2551.1,1120.3l19.7,7.3c3.6,1.3,7.6-0.5,8.9-4.1l0,0c1.3-3.6-0.5-7.6-4.1-8.9l-19.7-7.3
					c-3.6-1.3-7.6,0.5-8.9,4.1l0,0C2545.6,1115,2547.5,1118.9,2551.1,1120.3z"/>
				<path class="st20" d="M2534.5,1148l14-17.8c2.1-2.7,1.6-6.5-1-8.6l0,0c-2.7-2.1-6.5-1.6-8.6,1l-14,17.8c-2.1,2.7-1.6,6.5,1,8.6
					l0,0C2528.5,1151.1,2532.4,1150.6,2534.5,1148z"/>
				<path class="st20" d="M2581.7,1067.7l3.1,14.5l0,0c1.2,4.5,5.5,7.2,9.4,5.9l0,0c3.7-1.2,5.5-5.6,4.1-9.8l-5.9-17.6
					c-0.9-2.7-3.6-4.2-6-3.3l0,0C2582.8,1058.9,2580.8,1063.3,2581.7,1067.7z"/>
				<path class="st20" d="M2603.6,1220.5c-7.8-3.6-13.7-8.2-16.6-22.2c-2.3-11.2-1.5-19.6,1.9-25.9c3.5-6.5,9.8-11.5,16.5-9.6
					c1.7,0.5,3.3,0.6,4.2-0.3c0,0,0,0,0,0c4.8-4.4,1.4-7.1,11.9-18.4c10.6-11.3,17.5-4.7,18.9-2.7c1.4,2-4.8,5.9-7.4,8.3
					c-2.6,2.4-5.2,12.5-7.8,16.9c-1.5,2.6-3.2,9.6-4.3,15c-1.1,5.1-2.5,10.1-4.3,14.9c-2.6,7.1-3.3,13.9-7,19.2
					C2608.5,1217.3,2605,1219.2,2603.6,1220.5z"/>
			</g>
			<g>
				<path class="st18" d="M2629.6,1247.8c70.8,63.2,199.6,228.2,226.4,282c22.3,44.7-5.2,57.5-6.1,58.4
					c-11.2,10.4-39.9,7.1-51.1-7.2l-217.3-300.2L2629.6,1247.8z"/>
			</g>
			<g>
				<path class="st20" d="M2731.3,1554.2c3.9,9.5,9,16.6,24.4,19.8c12.3,2.6,21.7,1.5,28.7-2.8c7.3-4.4,12.8-12.3,10.9-20.4
					c-0.5-2.1-0.6-4,0.3-5.2c0,0,0,0,0-0.1c4.9-6,7.9-1.8,20.5-14.9c12.6-13.1,5.4-21.4,3.2-23.1c-2.2-1.6-6.6,6-9.2,9.2
					c-2.6,3.2-13.9,6.6-18.8,9.9c-2.9,1.9-10.7,4.1-16.7,5.6c-5.6,1.4-11.2,3.2-16.5,5.5c-7.9,3.3-15.5,4.4-21.3,9
					C2734.9,1548.1,2732.7,1552.4,2731.3,1554.2z"/>
				<polygon class="st20" points="2640.4,1578.2 2643.6,1538.4 2741.8,1554.8 2736.2,1596.9 				"/>
				<path class="st20" d="M2779.8,1543.6c-23.1,6.6-47.7,11.3-48.5,12.4l-4.2,40.8c4.5,4.6,10.6,11.6,55.3,12.1l16.5,0l8.6-17.7
					c1.3-2.7,2.4-5.6,3.1-8.5l1-3.9c1.9-7.9,1.4-16.1-1.5-23.6l-1.8-4.6C2807.4,1548,2778.5,1545.5,2779.8,1543.6L2779.8,1543.6z"/>
				<path class="st20" d="M2839.8,1555l-46.2,8.3c-3.7,0.7-7.2-1.7-8-5.4l0,0c-0.8-3.6,1.6-7.1,5.3-7.7l46.2-8.3
					c3.7-0.7,7.2,1.7,8,5.4l0,0C2845.9,1550.9,2843.5,1554.4,2839.8,1555z"/>
				<path class="st20" d="M2869.1,1555.8l-29.5-1.2c-3.5-0.1-6.3-3.1-6.2-6.5l0,0c0.1-3.4,2.9-6.1,6.4-6l29.5,1.2
					c3.5,0.1,6.3,3.1,6.2,6.5l0,0C2875.5,1553.3,2872.6,1556,2869.1,1555.8z"/>
				<path class="st20" d="M2886.1,1558.1l-13.9-2l0,0c-4.3-0.8-7.2-4.5-6.4-8l0,0c0.8-3.3,4.8-5.2,8.9-4.2l17,4.3
					c2.6,0.7,4.3,3,3.6,5.1l0,0C2894.3,1556.7,2890.4,1558.7,2886.1,1558.1z"/>
				<path class="st20" d="M2887.8,1566.7l-13.9,1.2l0,0c-4.3,0.6-7.4,4.3-6.7,8.1l0,0c0.6,3.6,4.5,5.8,8.6,5l17.1-3.4
					c2.6-0.5,4.4-2.9,3.9-5.2l0,0C2895.8,1568.7,2892.1,1566.3,2887.8,1566.7z"/>
				<path class="st20" d="M2849,1567.8l-41.1-4.2c-3.7-0.4-7.1,2.3-7.6,6l0,0c-0.5,3.7,2.1,7,5.9,7.4l41.1,4.2
					c3.7,0.4,7.1-2.3,7.6-6l0,0C2855.3,1571.5,2852.7,1568.2,2849,1567.8z"/>
				<path class="st20" d="M2872.3,1567.9l-25,0.3c-3.7,0-6.7,3-6.7,6.7l0,0c-0.1,3.6,2.9,6.6,6.5,6.5l25-0.3c3.7,0,6.7-3,6.7-6.7
					l0,0C2878.9,1570.8,2876,1567.9,2872.3,1567.9z"/>
				<path class="st20" d="M2873.6,1591.1l-12.7-0.9l0,0c-4-0.1-7.2,2.8-7,6.2l0,0c0.2,3.3,3.4,5.8,7.2,5.6l15.9-0.6
					c2.5-0.1,4.3-2,4.1-4.1l0,0C2880.7,1594,2877.5,1591.3,2873.6,1591.1z"/>
				<path class="st20" d="M2841.4,1588.1l-33.3-5.8c-3.9-0.7-7.6,1.4-8.3,4.7l0,0c-0.6,3.3,2,6.5,5.9,7.2l33.3,5.8
					c3.9,0.7,7.6-1.4,8.3-4.7v0C2848,1592.1,2845.3,1588.8,2841.4,1588.1z"/>
				<path class="st20" d="M2860.7,1590.3l-16.8-1.6c-4-0.4-7.4,2-7.8,5.2l0,0c-0.3,3.3,2.6,6.2,6.6,6.6l16.8,1.6
					c4,0.4,7.4-2,7.8-5.2l0,0C2867.6,1593.6,2864.6,1590.6,2860.7,1590.3z"/>
				<path class="st20" d="M2845.5,1608.9l-12-1.5l0,0c-3.8-0.3-7.1,2.3-7.3,5.5v0c-0.1,3.1,2.7,5.7,6.4,5.7l15.2,0.2
					c2.4,0,4.3-1.6,4.3-3.6l0,0C2852,1612,2849.2,1609.3,2845.5,1608.9z"/>
				<path class="st20" d="M2817.2,1602.8l-31.8-10.7c-3.1-1-6.5,0.6-7.6,3.7l0,0c-1.1,3.1,0.5,6.4,3.5,7.5l31.8,10.7
					c3.1,1,6.5-0.6,7.6-3.7l0,0C2821.8,1607.1,2820.2,1603.8,2817.2,1602.8z"/>
				<path class="st20" d="M2834.7,1607.4l-17.3-4.3c-3.1-0.8-6.4,1.1-7.2,4.3l0,0c-0.9,3.1,1,6.3,4.1,7.1l17.3,4.3
					c3.1,0.8,6.4-1.1,7.2-4.3l0,0C2839.7,1611.3,2837.9,1608.1,2834.7,1607.4z"/>
			</g>
			<g>
				<path class="st18" d="M2700.8,1592c-94.7,6.6-302.1-10-359.4-28.3c-47.5-15.2-37.6-43.8-37.6-45.1c0.4-15.3,22.7-33.5,40.8-31.6
					l360.4,57.3L2700.8,1592z"/>
			</g>
		</g>
		<g>
			
				<rect x="1924.4" y="1578.3" transform="matrix(-1 -1.224647e-16 1.224647e-16 -1 4517.5044 3197.9248)" class="st3" width="668.8" height="41.3"/>
			<polygon class="st3" points="1924.4,1582.3 2484,1582.3 2395.3,1207.4 1835.7,1207.4 			"/>
			<path class="st11" d="M2153.2,1408.4l1,25.3c13.5-0.5,24.3-11.8,24.3-25.3c0-13.9-11.4-25.3-25.3-25.3s-25.3,11.4-25.3,25.3
				H2153.2z"/>
		</g>
	</g>
	<g>
		<g>
			<path class="st21" d="M2151.1,1604.8c21,0,38.6,14.1,44.1,33.3H2107C2112.5,1618.8,2130.2,1604.8,2151.1,1604.8z"/>
			<path class="st21" d="M2202.7,1615.1c14.5,0,26.7,9.7,30.4,23h-60.9C2176.1,1624.8,2188.3,1615.1,2202.7,1615.1z"/>
			<path class="st21" d="M2137.1,1638c-5.9-20.5-29.4-35.8-57.5-35.8s-51.6,15.3-57.5,35.8H2137.1z"/>
		</g>
		<g>
			<path class="st21" d="M2190.8,1534.3c-3-1-6.2,0.7-7.2,3.7c-0.4,1.3-0.3,2.7,0.2,3.9c-4.8,4.7-9.2,9.7-13.2,14.8
				c0.8-5.3,1.6-13.3,0.8-21.1c1.4-0.6,2.6-1.8,3.1-3.4c1-3-0.7-6.2-3.7-7.2c-3-1-6.2,0.7-7.2,3.7c-1,3,0.7,6.2,3.7,7.2
				c0.3,0.1,0.7,0.2,1,0.2c1.1,11.8-1.4,24.1-1.8,26c-8.6,11.6-15.2,23.3-20,32.6c-8.5,16.7-12.7,29.5-12.8,29.6l2.9,1
				c0-0.1,4.2-12.7,12.6-29.1c2.5-5,5.6-10.6,9.2-16.5c2.1-0.5,10.3-2.3,21.2-1c0.1,2.3,1.6,4.4,3.9,5.2c3,1,6.2-0.7,7.2-3.7
				c1-3-0.7-6.2-3.7-7.2c-2.6-0.8-5.4,0.3-6.7,2.7c-8.7-1.1-15.7-0.4-19.7,0.4c6.7-10.5,15-21.7,25-31.5c0.5,0.3,1,0.6,1.6,0.8
				c3,1,6.2-0.7,7.2-3.7C2195.5,1538.5,2193.8,1535.3,2190.8,1534.3z"/>
			<path class="st21" d="M2122.5,1576.6c1.8-1.3,8.8-5.8,19.5-8.4c0.9,2.1,3.1,3.6,5.5,3.4c3.1-0.2,5.6-2.8,5.4-6
				c-0.2-3.1-2.8-5.6-6-5.4c-2.8,0.1-5,2.2-5.4,4.9c-8.5,2-14.8,5.2-18.3,7.3c2.6-12.2,6.4-25.6,12.2-38.3c0.6,0.2,1.2,0.2,1.8,0.2
				c3.1-0.2,5.6-2.8,5.4-6c-0.2-3.1-2.8-5.6-6-5.4c-3.1,0.2-5.6,2.8-5.4,6c0.1,1.4,0.6,2.7,1.5,3.6c-2.8,6.1-5.2,12.3-7.2,18.5
				c-1.1-5.3-3.2-13-6.7-20.1c1.1-1.1,1.8-2.6,1.7-4.3c-0.2-3.1-2.8-5.6-6-5.4c-3.1,0.2-5.6,2.8-5.4,6c0.2,3.1,2.8,5.6,6,5.4
				c0.4,0,0.7-0.1,1.1-0.2c5.2,10.6,7.2,23.1,7.5,25c-3.9,13.9-6.1,27.2-7.2,37.5c-2.1,18.6-1.5,32-1.5,32.2l3.1-0.1
				c0-0.1-0.5-13.3,1.5-31.7C2120.3,1589.8,2121.2,1583.4,2122.5,1576.6z"/>
		</g>
	</g>
	<g>
		<path class="st7" d="M1114.9,831c15.3,0,28.2,10.3,32.2,24.3h-64.4C1086.6,841.3,1099.6,831,1114.9,831z"/>
		<path class="st7" d="M1152.5,838.5c10.6,0,19.5,7.1,22.2,16.8h-44.4C1133.1,845.6,1142,838.5,1152.5,838.5z"/>
		<path class="st7" d="M1104.6,855.3c-4.3-15-21.5-26.1-42-26.1c-20.5,0-37.6,11.2-42,26.1H1104.6z"/>
	</g>
	<g>
		<path class="st1" d="M1064.2,1559.1c28.3,0,52.2,19,59.6,44.9h-119.2C1012,1578.1,1035.9,1559.1,1064.2,1559.1z"/>
		<path class="st1" d="M1133.9,1573c19.5,0,36,13.1,41.1,31h-82.3C1097.9,1586.1,1114.4,1573,1133.9,1573z"/>
		<path class="st1" d="M1045.3,1604c-8-27.7-39.7-48.4-77.7-48.4c-37.9,0-69.6,20.7-77.7,48.4H1045.3z"/>
	</g>
	<path class="st9" d="M1422.3,900c17.5,0,31.7-13.2,31.7-29.5c0,16.3,14.2,29.5,31.7,29.5c-17.5,0-31.7,13.2-31.7,29.5
		C1454,913.2,1439.8,900,1422.3,900z"/>
	<path class="st9" d="M1954.2,622.1c17.5,0,31.7-13.2,31.7-29.5c0,16.3,14.2,29.5,31.7,29.5c-17.5,0-31.7,13.2-31.7,29.5
		C1985.9,635.3,1971.7,622.1,1954.2,622.1z"/>
	<path class="st9" d="M2037.6,514.4c9.8,0,17.7-7.4,17.7-16.5c0,9.1,7.9,16.5,17.7,16.5c-9.8,0-17.7,7.4-17.7,16.5
		C2055.3,521.7,2047.4,514.4,2037.6,514.4z"/>
	<path class="st9" d="M1718.9,612.2c9.8,0,17.7-7.4,17.7-16.5c0,9.1,7.9,16.5,17.7,16.5c-9.8,0-17.7,7.4-17.7,16.5
		C1736.6,619.6,1728.7,612.2,1718.9,612.2z"/>
</g>
</svg>
